<svg width="488" height="488" viewBox="0 0 488 488" fill="none" xmlns="http://www.w3.org/2000/svg">
<path d="M476.658 0.800537L375.792 0.800537C366.128 0.800537 361.288 12.4814 368.124 19.3169L399.462 50.6553L216.569 233.548L152.524 169.503L135.36 152.339C129.552 146.531 120.137 146.531 114.329 152.339L5.15581 261.506C-0.652196 267.314 -0.652196 276.729 5.15581 282.537L22.3202 299.702C28.1282 305.51 37.5433 305.51 43.3513 299.702L124.842 218.211L205.927 299.296C211.735 305.104 221.15 305.104 226.958 299.296L235.686 290.568C236.135 290.211 236.605 289.892 237.022 289.476L437.652 88.8453L468.99 120.184C475.826 127.019 487.507 122.179 487.507 112.515V11.6486C487.507 5.65676 482.65 0.800537 476.658 0.800537Z" fill="#F0F0F0"/>
<path d="M355.697 205.217V472.634C355.697 480.848 362.354 487.505 370.569 487.505H418.06C426.275 487.505 432.932 480.848 432.932 472.634V127.983L355.697 205.217Z" fill="#F0F0F0"/>
<path d="M255.592 305.326V472.633C255.592 480.847 262.249 487.504 270.463 487.504H317.955C326.169 487.504 332.826 480.847 332.826 472.633V228.091L255.592 305.326Z" fill="#F0F0F0"/>
<path d="M216.444 327.99C205.969 327.99 196.127 323.912 188.718 316.503L155.482 283.272V472.633C155.482 480.847 162.139 487.504 170.353 487.504H217.845C226.059 487.504 232.716 480.847 232.716 472.633V324.426C227.671 326.735 222.16 327.99 216.444 327.99Z" fill="#F0F0F0"/>
<path d="M124.842 252.627L60.565 316.904C58.9535 318.516 57.2068 319.944 55.3789 321.231L55.3789 472.634C55.3789 480.848 62.0359 487.505 70.2504 487.505H117.742C125.956 487.505 132.613 480.848 132.613 472.634V260.398L124.842 252.627Z" fill="#F0F0F0"/>
</svg>
